<?xml version="1.0" encoding="UTF-8"?>
<svg id="Layer_1" xmlns="http://www.w3.org/2000/svg" version="1.1" viewBox="0 0 84 80">
  <!-- Generator: Adobe Illustrator 29.0.0, SVG Export Plug-In . SVG Version: 2.1.0 Build 186)  -->
  <defs>
    <style>
      .st0 {
        fill: #37803e;
      }
    </style>
  </defs>
  <path class="st0" d="M24.2,54.7c-7.5-7.9-3.5-21.3,7.1-23.6,13-2.8,22.2,11.8,14.4,22.4l3.6,3.7c1.4-.4,1.6-.6,2.8.3,3.8,3,7.3,7.9,11.1,11.1.6.9.6,1.6,0,2.4-.4.4-2.3,2.4-2.7,2.7-.7.5-1.3.5-2,0l-11.6-11.5c-.9-1.3.1-1.9-.1-2.5l-3.4-3.5c-1,.4-1.8,1.1-2.8,1.5-5.5,2.5-12.1,1.4-16.2-3h0ZM42.9,36.8c-5.6-5.9-15.9-4.1-19,3.4-4,9.4,5.2,19,14.8,15.4,7.7-2.9,9.9-12.9,4.2-18.8h0Z"/>
  <path class="st0" d="M41.7,16.7v13.3c-4.5-2.1-9.9-2.1-14.4,0v-13.3h-1.9V7.5c0-.7,1.4-1.6,2.1-1.5,4.4.3,9.4-.4,13.7,0,1.2,0,2.1.5,2.3,1.8.3,2.6-.2,5.8,0,8.4l-.3.4s-1.6,0-1.6,0ZM39.3,16.7h-9.7v4.2h9.4l.2-.2v-4h0Z"/>
  <path class="st0" d="M41.7,59.9v7.7c0,3.4-4,6.5-7.2,6.5s-7.1-3.1-7.1-6.5v-7.7c3.5,1.4,6.9,1.9,10.6,1.2,1.3-.3,2.5-.8,3.7-1.2Z"/>
  <path class="st0" d="M34.6,37.1c2.1,3.7,7.5,9.3,4.1,13.6-2.1,2.6-6.3,2.7-8.4,0-3.4-4.3,1.9-9.9,4-13.5l.4-.2ZM35.6,50.4c-1.1-1-2.3-1.9-2.8-3.4l-.7-2.2c-1.7,3-.4,6.4,3.4,5.6h0Z"/>
</svg>