<?xml version="1.0" encoding="UTF-8"?>
<svg id="Layer_1" xmlns="http://www.w3.org/2000/svg" version="1.1" viewBox="0 0 84 80">
  <!-- Generator: Adobe Illustrator 29.0.0, SVG Export Plug-In . SVG Version: 2.1.0 Build 186)  -->
  <defs>
    <style>
      .st0 {
        fill: #37803e;
      }
    </style>
  </defs>
  <path class="st0" d="M42,4c3.3,0,6.1,4.3,8,11.2.7,2.4,1.2,5.1,1.7,8.1,2.8-1.1,5.5-2,7.9-2.6,6.9-1.8,12-1.5,13.7,1.3,1.6,2.9-.6,7.4-5.7,12.5-1.8,1.8-3.8,3.6-6.2,5.5,1,.8,1.9,1.5,2.7,2.2-.8.5-1.4,1.3-1.9,2.1-1-.8-2-1.7-3.2-2.6-2,1.5-4.1,2.9-6.3,4.4-.1,2.7-.3,5.2-.6,7.7,3,1.2,5.7,2.1,8.2,2.8,5.6,1.5,9.6,1.6,10.5,0,.5-.9.2-2.2-.9-3.9.8-.4,1.6-.9,2.2-1.6,1.7,2.8,2.2,5.2,1.1,7-1.7,2.9-6.8,3.2-13.7,1.3-2.4-.6-5-1.5-7.9-2.6-.4,3-1,5.7-1.7,8.1-1.9,6.9-4.7,11.2-8,11.2s-6.1-4.3-8-11.2c-.7-2.4-1.2-5.1-1.7-8.1-1,.4-2,.8-3,1.1,0-1-.4-1.9-.9-2.7,1.1-.4,2.3-.8,3.5-1.3-.3-2.4-.5-5-.6-7.7-2.2-1.5-4.4-2.9-6.3-4.4-2.5,2-4.7,3.9-6.5,5.7-4.1,4.2-6.2,7.5-5.2,9.1.5.9,2,1.3,4.1,1.2,0,.2,0,.4,0,.5,0,.8.2,1.5.4,2.2-3.4.2-5.9-.6-6.9-2.5-1.7-2.9.6-7.4,5.7-12.5,1.8-1.8,3.8-3.6,6.2-5.5-2.4-1.9-4.5-3.7-6.2-5.5-5-5.1-7.3-9.6-5.7-12.5,1.7-2.9,6.8-3.2,13.7-1.3,2.4.6,5.1,1.5,7.9,2.6.2-1.1.3-2.1.5-3.1.8.4,1.7.6,2.7.6h0c-.2,1.2-.4,2.4-.6,3.6,2.2,1,4.6,2.1,7,3.3,2.4-1.2,4.7-2.3,7-3.3-.4-3.2-1-6-1.7-8.5-1.5-5.6-3.4-9.1-5.3-9.1s-2.1,1.1-3.1,3c-.8-.5-1.6-.9-2.6-1,1.6-3.1,3.5-4.8,5.6-4.8h0ZM67,43.1c2.2,0,3.9,1.8,3.9,3.9s-1.8,3.9-3.9,3.9-3.9-1.8-3.9-3.9,1.7-3.9,3.9-3.9h0ZM23.4,54.3c2.2,0,3.9,1.8,3.9,3.9s-1.8,3.9-3.9,3.9-3.9-1.8-3.9-3.9,1.8-3.9,3.9-3.9h0ZM35.6,10.9c2.2,0,3.9,1.8,3.9,3.9s-1.8,3.9-3.9,3.9-3.9-1.8-3.9-3.9,1.8-3.9,3.9-3.9h0ZM42,34.8c2.9,0,5.2,2.3,5.2,5.2s-2.3,5.2-5.2,5.2-5.2-2.3-5.2-5.2,2.3-5.2,5.2-5.2h0ZM25,38.3c2-1.5,4.1-2.9,6.3-4.4.1-2.7.3-5.2.6-7.7-3-1.2-5.7-2.1-8.2-2.8-5.6-1.5-9.6-1.6-10.5,0s1.1,5,5.2,9.1c1.8,1.8,4,3.8,6.5,5.7h0ZM48.9,55.6c-2.2-1-4.6-2.1-7-3.3-2.4,1.2-4.7,2.3-6.9,3.3.4,3.2,1,6,1.7,8.5,1.5,5.6,3.4,9.1,5.3,9.1s3.8-3.5,5.3-9.1c.7-2.5,1.2-5.3,1.7-8.5h0ZM38.9,50.7c-.8-.4-1.6-.9-2.3-1.3h0s0,0,0,0c-.8-.5-1.5-.9-2.3-1.3.1,1.6.2,3.2.4,4.7,1.4-.6,2.8-1.3,4.3-2h0ZM45,29.4c.8.4,1.6.9,2.4,1.3.8.5,1.6.9,2.3,1.4-.1-1.6-.2-3.2-.4-4.7-1.4.6-2.8,1.3-4.3,2h0ZM52.6,33.9c2.2,1.5,4.4,2.9,6.3,4.4,2.5-2,4.7-3.9,6.5-5.7,4.1-4.1,6.2-7.5,5.2-9.1-.9-1.6-4.9-1.5-10.5,0-2.5.7-5.2,1.6-8.2,2.8.3,2.4.5,5,.6,7.7h0ZM56.6,40c-1.2-.9-2.5-1.8-3.9-2.7,0,.9,0,1.8,0,2.7s0,1.8,0,2.7c1.3-.9,2.6-1.8,3.9-2.7h0ZM49.9,35.5c-1.3-.8-2.6-1.6-3.9-2.3h0c-1.3-.8-2.7-1.5-4-2.2-1.3.7-2.7,1.4-4,2.2h0c-1.3.8-2.6,1.5-3.9,2.3,0,1.5,0,3,0,4.6s0,3.1,0,4.6c1.2.8,2.5,1.5,3.8,2.3h0s0,0,0,0c1.3.8,2.7,1.5,4,2.2,1.3-.7,2.6-1.4,4-2.2,0,0,0,0,0,0h0c1.3-.8,2.6-1.5,3.9-2.3,0-1.5,0-3,0-4.6s0-3.1,0-4.6h0ZM38.9,29.4c-1.4-.7-2.9-1.4-4.3-2-.2,1.5-.3,3.1-.4,4.7.8-.5,1.5-.9,2.3-1.4h0c.8-.5,1.6-.9,2.3-1.3h0ZM27.3,40c1.2.9,2.5,1.8,3.9,2.7,0-.9,0-1.8,0-2.7s0-1.8,0-2.7c-1.3.9-2.6,1.8-3.9,2.7h0ZM45,50.7c1.5.7,2.9,1.4,4.3,2,.2-1.5.3-3.1.4-4.7-.8.5-1.5.9-2.3,1.4h0c-.8.5-1.5.9-2.3,1.3h0Z"/>
</svg>