<?xml version="1.0" encoding="UTF-8"?>
<svg id="Layer_1" xmlns="http://www.w3.org/2000/svg" version="1.1" viewBox="0 0 84 80">
  <!-- Generator: Adobe Illustrator 29.0.0, SVG Export Plug-In . SVG Version: 2.1.0 Build 186)  -->
  <defs>
    <style>
      .st0 {
        fill: #37803e;
      }
    </style>
  </defs>
  <path class="st0" d="M75.6,27.8c-.9.8-5.2.1-6.5.4l-6.6,11.6v.6c0,0,6.6,11.3,6.6,11.3.3.2,4.8,0,5.7,0,1.5.2,1.6,2.2.3,2.5-1.6.3-4.1-.2-5.8,0l-6.9,11.7,2.9,5.2c.4,1.3-1.3,2.2-2.2,1.2l-3.1-5.1h-13.3l-3.1,5.1c-1,1-2.6,0-2.1-1.3l2.8-5-7-11.8h-13.3l-3.1,5.1-.8.4c-3.4-.7,1.2-5,1.6-6.8l-6.7-11.8c-.3-.2-4.9.1-5.9,0-1.4-.2-1.4-2.2-.1-2.5,1-.2,5.6.2,6,0l6.7-11.9-2.9-5c-.3-1.3,1.1-2,2.1-1.2l3.1,5.1h13.5c0-.1,6.8-11.7,6.8-11.7l-2.9-5.2c-.4-1.3,1.3-2.2,2.2-1.2l3.1,5.1h13.3l3.1-5.1c1-1,2.6,0,2.1,1.3l-2.8,4.9,6.7,11.8c.7.5,4.9-.2,6.1.2.9.3,1,1.5.4,2.1h0ZM60.2,15.2h-13.8l-6.7,11.7c.5,1.5,4.5,7,4.5,8.1s-1.7,1.7-2.4.6l-4.2-7.4h-13.8l-6.6,11.8,6.6,11.7h13.8l7.1-12.4.6-.5h14.9c0,0,6.7-11.9,6.7-11.9l-6.7-11.7h0ZM60.2,41.3h-13.8l-6.6,11.7,6.6,11.8h13.8c0,0,6.7-11.7,6.7-11.7l-6.7-11.8h0Z"/>
  <path class="st0" d="M36.3,31.1l3.5,6.2c0,1-.7,1.7-1.7,1.4-.9-.3-2.6-4.5-3.5-5.3-1.4-.4-5.6.4-6.6-.5-.7-.7-.3-2,.7-2.1,1.2-.2,5.5-.2,6.8,0,.3,0,.6.2.8.4h0Z"/>
  <path class="st0" d="M50.7,19.8c-.7-.6-.4-1.9.5-2.1h7.3c.4.2.5.6.7.9.8,1.1,2.4,3.9,2.9,5.1.1.4.4.7.2,1.1-2.2,3.6-4-4.1-5.2-4.5-1.3-.3-5.6.4-6.4-.4h0Z"/>
  <path class="st0" d="M51.2,43.8h7.3c.4.3.6.8.9,1.2.6.8,2.8,4.5,2.9,5.2.3,1-.7,1.9-1.8,1.5-.9-.4-2.5-4.5-3.4-5.4-1.3-.3-5.4.4-6.3-.3-.8-.6-.6-2,.4-2.2Z"/>
</svg>