<?xml version="1.0" encoding="UTF-8"?>
<svg id="Layer_1" xmlns="http://www.w3.org/2000/svg" version="1.1" viewBox="0 0 84 80">
  <!-- Generator: Adobe Illustrator 29.0.0, SVG Export Plug-In . SVG Version: 2.1.0 Build 186)  -->
  <defs>
    <style>
      .st0 {
        fill: #37803e;
      }
    </style>
  </defs>
  <path class="st0" d="M18.2,9.9c1.3.3,2.7,2.8,3.6,3.2.7.3,1.3-.9,2.9.1l14.2,14.3c1.8,0,4.6,2.3,4.3,4.2-.2.8-1.2,1.1-1.1,1.6.2,1,3.6,2.2,2.2,4.7-.1.2-3,3.1-3.3,3.3-2.6,1.7-3.7-2.3-5-2-.8.2-1,1.7-2.8.8-.3-.2-2-1.8-2.2-2.2-.5-.8-.3-2.2-1.2-2.4-.2,0-3.8.9-4.1,1-1.3.7-2.9,3.5-3.3,5-3.2,11.3,10.3,19,18.5,10.8-2.2-.5-3.4-2.6-2.2-4.7,1.2-2,3-1.4,5-1.5-1.7-6.7,8.5-6.6,6.6,0,2.4-.3,5.7.2,5.4,3.3-.4,4-4.6,2-5.9,2.9-.2,0-1.7,2.7-2.2,3.3-.8.9-1.8,1.7-2.6,2.6l-2.9,1.9h5.6c1,0,3.3,1.7,3.9,2.7,1.2,1.7,1,5.1,1.2,5.3s3.5.2,1.2,2.2H13.1c-2.3-2,1.2-2,1.4-2.1,0,0,0-1.8,0-2.3.3-2.3,2.5-5.7,5-5.7h5.3l-4.1-3.1c-5.8-6.3-7.1-15.5-2.2-22.8,1.4-2,3.2-3.2,3.9-5.7,0-.9-6.5-5.7-6.6-7.6,0-.7.5-1.3.2-2-.6-1.3-3.6-2.3-3-4.3.3-1.2,3.3-3.7,4.5-4.4h.8,0ZM17.8,12.1l-2.6,2.8,2.6,2.6,2.6-2.8s-2.6-2.6-2.6-2.6ZM23.3,15.1c-1.8,1.8-3.9,3.5-5.4,5.6,0,.4,5.4,5.6,5.8,5.8.6.2,2.4-.6,3.7-.4,2.2.3,4.3,2.9,4.3,5.1,0,.6-1.2,3.7.4,3.4.4,0,4.9-4.8,5.4-5.6l-14.1-13.9h0ZM26.1,28c-3,.4-3.5,5.3-.3,5.9,4.7,1,4.9-6.5.3-5.9ZM39.5,29.9c-.9.2-5.4,5.7-6.7,6.6-.3.5.9,1.9,1.7,1.4,2-1.4,4.2-4.7,6.3-6.3.4-.7-.7-1.8-1.3-1.6ZM47.3,52.1c-1,.1-2.5-.2-3.4,0-.4.1-1.3,1.5-1.8,2-11.2,10-27.7-3.2-20.1-16.5.3-.5,1.7-2.1,1.7-2.4,0-.4-1.6-1.4-1.8-2.1-13.7,15.8,7.6,36.3,23,22.2l2.3-3.3h0ZM40.3,34.8c-2.1,2-3.5,2.4-.6,4.6.4-.5,2.5-2.2,2.6-2.6,0-.4-1.7-2.1-2-2h0ZM46.7,43.1c-1.7.4-1.2,3.3.7,2.9,2.1-.4,1.2-3.5-.7-2.9ZM41.4,50.2h11.5c.8,0,.8-2.2,0-2.2h-11.5c-1.1,0-1.1,1.9,0,2.2ZM50.6,68c.3-2.8-.6-5.5-3.7-5.8-8.5-.8-18.4.6-27.1,0-2.8.7-3.5,3.1-3.2,5.7,0,0,34,0,34,0Z"/>
  <path class="st0" d="M45.6,9.9c2.1.6,4.1,2.8,4.1,5.1s-.9,2.4-.8,2.7c0,0,1.2.9,1.3,1,.2,0,1.3-.8,1.7-.9,2.2-.8,4.3-1,6.6-.3.7.2,2.6,1.6,3.1,1.5,1.8-.5.9-2.7,1-3.9.3-3.7,5-5.3,7.7-2.8,3.4,3.3.1,8.7-4.2,7.8-.5-.1-1.2-.8-1.7-.7s-.9,1.1-1.5,1.1c1.4,2.4,2,4.6,1.6,7.5-.2,1-1.3,3-1.2,3.5.6,2,1.9,1.5,3.4,1.8,4.5,1.1,6.6,6.6,3.6,10.4-4,5-11.7,2.2-11.8-3.8,0-1.7,1.6-3.5,0-4.5-.8-.5-2.4.1-3.6,0-5.7-.4-9.5-6.4-7.9-11.8.2-.8,1.7-3.1,1.7-3.3-.7-1.6-2.4,0-3.6,0-6.1.3-7.4-8.5-1.5-10.1h2.2ZM47.6,15.9c.7-3.2-3.3-5.4-5.3-2.7-1.9,2.5.5,5.2,3.4,4.6.3-.3-2-1.9-.8-2.7.9-.6,2.4,1.1,2.7.8h0ZM66.5,17.3c-1,1.4,3.8.8,3.2-2.2-.6-3.2-5.4-2.5-4.8.8.2.3,1.8-1.6,2.6-.6.9,1.3-.9,1.8-1,1.9h0ZM56.6,32.9c-1-2.6,1-5.4,3.8-4.5,1,.3,1.1,1.5,1.8-.3,2.6-6.8-7.4-12.7-12.3-6.2-3.8,5,.4,12,6.6,11.1h0ZM62,34c.5-1-3.2-5.6-3.5-2.8,0,.5,1.6,3.1,1.9,3.3.4.2,1.5-.2,1.6-.5h0ZM64.2,35.2c-5.1.8-4.5,9.3,1.2,8.9,6-.4,5.2-10-1.2-8.9Z"/>
  <path class="st0" d="M54.1,21.2c1.1-.2,1.8.2,1.4,1.4-.1.4-1.7,1-2.3,1.8-.5.8-.6,3.2-2,2.5-2.1-1,.8-5.4,2.9-5.8Z"/>
</svg>